<?xml version="1.0" encoding="iso-8859-1"?>
<!-- Generator: Adobe Illustrator 19.2.1, SVG Export Plug-In . SVG Version: 6.00 Build 0)  -->
<svg version="1.1" xmlns="http://www.w3.org/2000/svg" xmlns:xlink="http://www.w3.org/1999/xlink" x="0px" y="0px"
	 viewBox="0 0 32 32" style="enable-background:new 0 0 32 32;" xml:space="preserve">
<g id="Layer_34">
	<path style="fill:#95CC29;" d="M23.999,0c-4.418,0-8,3.134-8,7s3.582,7,8,7l0.151-0.013l-0.03,0.135
		c-0.237,0.596-0.736,1.151-1.226,1.452C22.41,15.886,21.999,16,21.999,16s0.384,0.146,1.047,0.18
		c0.659,0.042,1.611-0.121,2.489-0.644c0.875-0.511,1.609-1.377,1.978-2.156l0.061-0.149C30.187,12.08,31.999,9.736,31.999,7
		C31.999,3.134,28.417,0,23.999,0z M26.999,10h-6c-0.55,0-1-0.45-1-1s0.45-1,1-1h6c0.55,0,1,0.45,1,1S27.549,10,26.999,10z
		 M26.999,6h-6c-0.55,0-1-0.45-1-1s0.45-1,1-1h6c0.55,0,1,0.45,1,1S27.549,6,26.999,6z"/>
	<path style="fill:#666666;" d="M28.009,26.069l-0.01-0.07c-0.11-0.778-0.488-1.494-1.037-2.096
		c-1.756-1.913-4.015-2.848-5.865-3.642l-0.001,0c-0.954-0.404-1.769-0.759-2.324-1.122c-0.564-0.372-0.826-0.686-0.949-1.079l0,0
		l-0.059-0.389c-0.001-0.326,0.119-0.747,0.477-1.301l0.003-0.004c0.02-0.017,0.035-0.04,0.055-0.057
		c0.119-0.103,0.25-0.19,0.363-0.3l-0.038-0.039c0.264-0.258,0.536-0.508,0.768-0.8l-1.566-1.244
		c-0.268,0.337-0.557,0.637-0.861,0.898c-0.882,0.75-1.863,1.175-2.966,1.178c-1.115-0.003-2.097-0.436-2.973-1.182
		c-1.725-1.464-2.88-4.319-2.866-6.902c0-0.928,0.142-1.814,0.426-2.583c0.29-0.784,0.772-1.603,1.585-2.228
		C10.987,2.481,12.157,2.004,13.999,2c0.792,0,1.462,0.091,2.031,0.243l0.514-1.933C15.79,0.11,14.944,0,13.999,0
		c-2.193-0.004-3.864,0.603-5.047,1.519C7.765,2.432,7.09,3.606,6.71,4.641C6.33,5.671,6.161,6.786,6.16,7.916
		c0.013,2.959,1.149,6.046,3.202,8.063l-0.027,0.028c0.107,0.105,0.233,0.188,0.346,0.286c0.026,0.023,0.047,0.05,0.073,0.072
		l0.002,0.004c0.357,0.554,0.477,0.975,0.477,1.302l-0.059,0.39v0c-0.123,0.393-0.386,0.707-0.949,1.079
		c-0.555,0.363-1.37,0.718-2.324,1.122l0,0c-1.849,0.794-4.108,1.729-5.865,3.642c-0.548,0.612-0.901,1.255-1.023,1.936L0,25.918V30
		c0,1.105,0.893,2,1.999,2h24C27.104,32,28,31.105,28,30v0.002L28.009,26.069z M26,29.997V30H2v-3.886
		c0-0.161,0.212-0.545,0.513-0.863c1.373-1.509,3.315-2.365,5.172-3.151l-0.001,0c0.955-0.408,1.849-0.781,2.63-1.286
		c0.773-0.496,1.475-1.19,1.772-2.171v0c0.093-0.301,0.136-0.616,0.14-0.932c0.565,0.169,1.15,0.289,1.772,0.288
		c0.62,0.001,1.205-0.119,1.772-0.288c0.004,0.316,0.047,0.632,0.14,0.933l0,0c0.298,0.981,1,1.675,1.772,2.171
		c0.781,0.505,1.675,0.877,2.63,1.286l0,0c1.858,0.786,3.8,1.642,5.173,3.151c0.315,0.344,0.475,0.694,0.524,0.994L26,29.997z"/>
	<rect style="fill:none;" width="32" height="32"/>
</g>
<g id="Layer_1">
</g>
</svg>
