<?xml version="1.0" encoding="iso-8859-1"?>
<!-- Generator: Adobe Illustrator 19.2.1, SVG Export Plug-In . SVG Version: 6.00 Build 0)  -->
<svg version="1.1" xmlns="http://www.w3.org/2000/svg" xmlns:xlink="http://www.w3.org/1999/xlink" x="0px" y="0px"
	 viewBox="0 0 32.07 32.071" style="enable-background:new 0 0 32.07 32.071;" xml:space="preserve">
<g id="Layer_42">
	<path style="fill:#95CC29;" d="M29.809,6.396l1.675-1.639c0.781-0.781,0.781-2.047,0-2.828L30.07,0.515
		c-0.781-0.781-2.047-0.781-2.828,0l-1.639,1.674L29.809,6.396z"/>
	<polygon style="fill:#95CC29;" points="24.204,3.619 16,12 16,16.071 19.999,16.071 28.38,7.831 	"/>
	<path style="fill:#666666;" d="M26,14.071h-2v12h-3.001H8V27c0,1.656-1.344,2.997-3,3c-1.656-0.003-3-1.344-3-3V3
		c0-0.552,0.447-0.929,0.999-0.929h20L23.4,2.119l0.805-1.813c-0.37-0.163-0.781-0.235-1.207-0.235h-20C1.341,0.071,0,1.343,0,3v24
		c0,2.762,2.237,5.071,4.999,5.071h20C27.76,32.071,30,29.762,30,27v-0.929h-4V14.071z M27.813,28.071c-0.414,1-1.511,2-2.815,2
		H8.976c0.441-1,0.771-1,0.922-2h11.101h4H27.813z"/>
	<rect style="fill:none;" width="32" height="32"/>
</g>
<g id="Layer_1">
</g>
</svg>
