<svg aria-hidden="true" style="position: absolute; width: 0; height: 0; overflow: hidden;" version="1.1" xmlns="http://www.w3.org/2000/svg" xmlns:xlink="http://www.w3.org/1999/xlink">
<defs>
<symbol id="icon-battery" viewBox="0 0 32 32">
<path fill="#95cc29" style="fill: var(--color1, #95cc29)" d="M14 8l-6.001 10h6.001v6l5.999-10h-5.999z"></path>
<path fill="#666" style="fill: var(--color2, #666)" d="M2.999 26h24c1.657-0.001 3.001-1.343 3.001-3v-3h0.999c0.263 0 0.522-0.107 0.708-0.293s0.293-0.444 0.293-0.707v-6c0-0.263-0.107-0.521-0.294-0.707-0.186-0.186-0.444-0.293-0.707-0.293h-0.999v-3c0-1.657-1.344-2.999-3.001-3h-24c-1.658 0.001-2.999 1.343-2.999 3v14c0 1.657 1.341 2.999 2.999 3zM2 9c0-0.552 0.447-0.999 0.999-1h24c0.551 0.001 1.001 0.448 1.001 1v14c0 0.552-0.45 0.999-1.001 1h-24c-0.552-0.001-0.999-0.448-0.999-1v-14z"></path>
</symbol>
<symbol id="icon-cloud" viewBox="0 0 32 32">
<path fill="#95cc29" style="fill: var(--color1, #95cc29)" d="M14 32l-6-8h4v-8h4v8h4z"></path>
<path fill="#666" style="fill: var(--color2, #666)" d="M24 8c-0.108 0-0.184 0.022-0.286 0.028-0.923-4.557-4.878-8.026-9.714-8.028-5.517 0.002-9.998 4.483-10 10 0 0.797 0.134 1.546 0.315 2.271-2.485 0.727-4.313 3.002-4.315 5.729 0.002 3.238 2.577 5.861 5.786 5.978l0.037 0.010 0.117 0.012c0.116 0.004 0.39 0.006 2.056 0.010l0.003-2c-0.905-0.001-1.408-0.005-1.682-0.006l-0.259-0.004h-0.058v0.005c0 0-0.004-0.005-0.014-0.005-2.203-0.004-3.989-1.797-3.993-4-0.002-2.079 1.613-3.78 3.657-3.96 0.074-0.006 0.139-0.046 0.209-0.068 0.048 0.007 0.091 0.028 0.14 0.028 1.104 0 2.099 0.447 2.827 1.173 0.391 0.391 1.024 0.391 1.414 0 0.391-0.391 0.391-1.024 0-1.414-1.011-1.013-2.398-1.645-3.922-1.727-0.185-0.661-0.318-1.333-0.318-2.032 0-2.208 0.895-4.202 2.346-5.654s3.446-2.346 5.654-2.346c3.835-0.002 6.987 2.741 7.75 6.362-1.297 0.384-2.474 1.053-3.404 1.983-0.391 0.391-0.27 1.024 0.12 1.414s1.534 0.391 1.534 0.001v-0.049c0-0.872 1.774-1.711 3.042-1.711 0.008 0 0.016 0 0.024 0 0.352 0 0.657-0.050 0.934-0.049 1.656 0 3.15 0.696 4.24 1.784 1.089 1.090 1.76 2.597 1.76 4.253 0.005 3.007-2.249 5.562-5.128 5.983-0.139 0.013-0.767 0.027-1.458 0.026-1.47 0-3.395-0.028-3.399-0.028l-0.030 2.001c0.003 0 1.936 0.030 3.429 0.030 0.761-0.002 1.352-0.004 1.687-0.034l0.043-0.005c3.88-0.567 6.851-3.939 6.857-7.96-0.003-4.415-3.587-7.999-8.001-8.001z"></path>
</symbol>
<symbol id="icon-letter" viewBox="0 0 32 32">
<path fill="#95cc29" style="fill: var(--color1, #95cc29)" d="M25.999 16l-6 8h4.001v8h4v-8h3.999z"></path>
<path fill="#666" style="fill: var(--color2, #666)" d="M31.12 0.879c-0.195-0.195-0.426-0.353-0.67-0.489-0.263-0.146-0.543-0.266-0.847-0.329-0.196-0.040-0.398-0.061-0.604-0.061h-26c-0.207 0-0.409 0.021-0.605 0.061-0.324 0.066-0.623 0.195-0.9 0.357-0.224 0.131-0.436 0.279-0.617 0.46h0.001c-0.543 0.544-0.878 1.294-0.878 2.122v20c0 0.828 0.335 1.578 0.878 2.121v0c0.181 0.182 0.393 0.33 0.617 0.46 0.277 0.162 0.575 0.291 0.9 0.357 0.195 0.041 0.397 0.062 0.604 0.062h15.001v-2h-14.587l9.586-9.586 0.879 0.879c0.583 0.584 1.357 0.88 2.121 0.879 0.764 0.001 1.538-0.295 2.121-0.879l0.879-0.879 3.15 3.15 1.414-1.414-3.15-3.15 9.587-9.586v14.586h2v-15c0-0.828-0.337-1.578-0.88-2.121v0zM2 22.586v-19.172l9.586 9.586-9.586 9.586zM16.706 13.879c-0.198 0.197-0.448 0.292-0.707 0.293-0.259-0.001-0.509-0.096-0.707-0.293l-11.879-11.879h25.172l-11.879 11.879z"></path>
</symbol>
<symbol id="icon-lamp" viewBox="0 0 32 32">
<path fill="#95cc29" style="fill: var(--color1, #95cc29)" d="M31.727 16.273c0 0-7.092-1.393-10.607 2.121-2.606 2.606-2.513 7.172-2.291 9.363l-2.536 2.536c-0.391 0.391-0.391 1.024 0 1.414s1.024 0.391 1.414 0l2.536-2.536c2.19 0.222 6.757 0.314 9.363-2.292 3.515-3.515 2.121-10.606 2.121-10.606zM22.535 19.704c1.886-1.886 5.434-1.958 7.402-1.798l-9.156 9.094c-0.177-2-0.028-5.515 1.754-7.296z"></path>
<path fill="#666" style="fill: var(--color2, #666)" d="M4.374 21.248c1.014 0.84 1.626 1.964 1.626 3.17v3.582c0 1.105 0.895 2 2 2h0.587c0.695 1 1.943 1.998 3.413 2 1.47-0.002 2.718-1 3.413-2h0.587v-0.601c0-0.023 0.027-0.042 0.035-0.065l-0.035-0.012v-1.322h-8v-2h8v-2h-8v0.418c0-1.905-0.968-3.574-2.354-4.713-2.227-1.838-3.646-4.604-3.646-7.705 0-2.759 1.12-5.253 2.933-7.068 1.814-1.812 4.308-2.932 7.067-2.932 0.706 0 1.431 0.073 2.169 0.229 3.83 0.799 6.934 3.99 7.65 7.841 0.122 0.656 0.181 1.3 0.181 1.93 0 0.974-0.14 1.914-0.401 2.802l1.919 0.563c0.314-1.068 0.482-2.198 0.482-3.365 0-0.754-0.070-1.522-0.216-2.299-0.881-4.664-4.555-8.444-9.203-9.43-0.872-0.183-1.736-0.271-2.581-0.271-6.62 0.002-11.998 5.38-12 12-0.001 3.721 1.709 7.052 4.374 9.248z"></path>
<path fill="#666" style="fill: var(--color2, #666)" d="M4 12c0 0.552 0.448 1 1 1s1-0.448 1-1c0-1.656 0.671-3.15 1.76-4.24s2.584-1.76 4.24-1.76c0.552 0 1-0.448 1-1s-0.448-1-1-1c-4.414 0.002-7.998 3.586-8 8z"></path>
</symbol>
<symbol id="icon-check" viewBox="0 0 32 32">
<path fill="#95cc29" style="fill: var(--color1, #95cc29)" d="M24.999 18c-3.866 0-7 3.134-7 7s3.134 7 7 7 7-3.134 7-7-3.135-7-7-7zM29.706 23.707l-5 5c-0.187 0.186-0.444 0.293-0.707 0.293s-0.521-0.107-0.707-0.293l-3-3c-0.391-0.391-0.391-1.024 0-1.414s1.024-0.391 1.414 0l2.293 2.293 4.293-4.293c0.391-0.391 1.024-0.391 1.414 0s0.39 1.024 0 1.414z"></path>
<path fill="#666" style="fill: var(--color2, #666)" d="M2.999 32h15.001v-2h-15.001c-0.552-0.001-0.999-0.448-0.999-1v-22c0-0.552 0.447-0.999 0.999-1h1.184c-0.112 0.314-0.183 0.647-0.183 1v3h18v-3c0-0.353-0.074-0.686-0.185-1h1.184c0.551 0.001 1.001 0.448 1.001 1v9h2v-9c0-1.657-1.344-2.999-3.001-3h-5.101c-0.464-2.282-2.48-4-4.899-4s-4.436 1.718-4.899 4h-5.101c-1.658 0.001-2.999 1.343-2.999 3v22c0 1.657 1.341 2.999 2.999 3zM6 7c0-0.552 0.447-0.999 0.999-1h3.001v-1c0-1.657 1.343-2.997 3-3 1.656 0.003 3 1.344 3 3v1h2.999c0.551 0.001 1.001 0.448 1.001 1v1h-14v-1z"></path>
<path fill="#666" style="fill: var(--color2, #666)" d="M13.999 5c0 0.552-0.448 1-1 1s-1-0.448-1-1c0-0.552 0.448-1 1-1s1 0.448 1 1z"></path>
</symbol>
<symbol id="icon-think" viewBox="0 0 32 32">
<path fill="#95cc29" style="fill: var(--color1, #95cc29)" d="M23.999 0c-4.418 0-8 3.134-8 7s3.582 7 8 7l0.151-0.013-0.030 0.135c-0.237 0.596-0.736 1.151-1.226 1.452-0.484 0.312-0.895 0.426-0.895 0.426s0.384 0.146 1.047 0.18c0.659 0.042 1.611-0.121 2.489-0.644 0.875-0.511 1.609-1.377 1.978-2.156l0.061-0.149c2.613-1.151 4.425-3.495 4.425-6.231 0-3.866-3.582-7-8-7zM26.999 10h-6c-0.55 0-1-0.45-1-1s0.45-1 1-1h6c0.55 0 1 0.45 1 1s-0.45 1-1 1zM26.999 6h-6c-0.55 0-1-0.45-1-1s0.45-1 1-1h6c0.55 0 1 0.45 1 1s-0.45 1-1 1z"></path>
<path fill="#666" style="fill: var(--color2, #666)" d="M28.009 26.069l-0.010-0.070c-0.11-0.778-0.488-1.494-1.037-2.096-1.756-1.913-4.015-2.848-5.865-3.642h-0.001c-0.954-0.404-1.769-0.759-2.324-1.122-0.564-0.372-0.826-0.686-0.949-1.079v0l-0.059-0.389c-0.001-0.326 0.119-0.747 0.477-1.301l0.003-0.004c0.020-0.017 0.035-0.040 0.055-0.057 0.119-0.103 0.25-0.19 0.363-0.3l-0.038-0.039c0.264-0.258 0.536-0.508 0.768-0.8l-1.566-1.244c-0.268 0.337-0.557 0.637-0.861 0.898-0.882 0.75-1.863 1.175-2.966 1.178-1.115-0.003-2.097-0.436-2.973-1.182-1.725-1.464-2.88-4.319-2.866-6.902 0-0.928 0.142-1.814 0.426-2.583 0.29-0.784 0.772-1.603 1.585-2.228 0.816-0.626 1.986-1.103 3.828-1.107 0.792 0 1.462 0.091 2.031 0.243l0.514-1.933c-0.754-0.2-1.6-0.31-2.545-0.31-2.193-0.004-3.864 0.603-5.047 1.519-1.187 0.913-1.862 2.087-2.242 3.122-0.38 1.030-0.549 2.145-0.55 3.275 0.013 2.959 1.149 6.046 3.202 8.063l-0.027 0.028c0.107 0.105 0.233 0.188 0.346 0.286 0.026 0.023 0.047 0.050 0.073 0.072l0.002 0.004c0.357 0.554 0.477 0.975 0.477 1.302l-0.059 0.39c-0.123 0.393-0.386 0.707-0.949 1.079-0.555 0.363-1.37 0.718-2.324 1.122v0c-1.849 0.794-4.108 1.729-5.865 3.642-0.548 0.612-0.901 1.255-1.023 1.936l-0.013 0.078v4.082c0 1.105 0.893 2 1.999 2h24c1.105 0 2.001-0.895 2.001-2v0.002l0.009-3.933zM26 29.997v0.003h-24v-3.886c0-0.161 0.212-0.545 0.513-0.863 1.373-1.509 3.315-2.365 5.172-3.151h-0.001c0.955-0.408 1.849-0.781 2.63-1.286 0.773-0.496 1.475-1.19 1.772-2.171v0c0.093-0.301 0.136-0.616 0.14-0.932 0.565 0.169 1.15 0.289 1.772 0.288 0.62 0.001 1.205-0.119 1.772-0.288 0.004 0.316 0.047 0.632 0.14 0.933v0c0.298 0.981 1 1.675 1.772 2.171 0.781 0.505 1.675 0.877 2.63 1.286v0c1.858 0.786 3.8 1.642 5.173 3.151 0.315 0.344 0.475 0.694 0.524 0.994l-0.009 3.751z"></path>
</symbol>
<symbol id="icon-money" viewBox="0 0 32 32">
<path fill="#95cc29" style="fill: var(--color1, #95cc29)" d="M10.956 21.543c-0.012 1.135 0.563 2.102 1.342 2.656 0.778 0.566 1.718 0.808 2.647 0.811 0.928-0.003 1.868-0.245 2.646-0.811 0.778-0.554 1.353-1.522 1.341-2.657 0.001-0.602-0.123-1.156-0.38-1.624-0.456-0.833-1.237-1.251-1.933-1.482-1.058-0.345-2.139-0.432-2.81-0.693-0.337-0.125-0.537-0.263-0.649-0.404-0.11-0.143-0.204-0.326-0.21-0.781 0.012-0.513 0.185-0.781 0.529-1.051 0.344-0.258 0.899-0.427 1.467-0.424 0.567-0.003 1.123 0.166 1.466 0.424 0.343 0.27 0.515 0.537 0.528 1.051 0 0.55 0.446 0.996 0.996 0.996s0.996-0.446 0.996-0.996c0.013-1.135-0.563-2.103-1.341-2.657-0.778-0.566-1.717-0.808-2.646-0.811-0.928 0.003-1.869 0.245-2.647 0.811-0.779 0.554-1.354 1.522-1.342 2.657-0.001 0.602 0.123 1.156 0.38 1.624 0.456 0.833 1.237 1.251 1.933 1.483 1.058 0.345 2.139 0.432 2.81 0.693 0.337 0.125 0.537 0.263 0.649 0.404 0.11 0.143 0.204 0.326 0.21 0.781-0.013 0.514-0.185 0.781-0.528 1.051-0.344 0.258-0.899 0.427-1.466 0.424-0.568 0.003-1.123-0.166-1.467-0.424-0.344-0.27-0.516-0.538-0.528-1.050 0-0.55-0.446-0.996-0.996-0.996-0.552-0.001-0.997 0.445-0.997 0.995v0z"></path>
<path fill="#95cc29" style="fill: var(--color1, #95cc29)" d="M13.946 13.074v1.013c0 0.55 0.446 0.996 0.996 0.996s0.996-0.446 0.996-0.996v-1.013c0-0.55-0.446-0.996-0.996-0.996s-0.996 0.446-0.996 0.996z"></path>
<path fill="#95cc29" style="fill: var(--color1, #95cc29)" d="M13.946 24.031v0.996c0 0.55 0.446 0.996 0.996 0.996s0.996-0.446 0.996-0.996v-1.013c0-0.55-0.446-0.996-0.996-0.996s-0.996 0.446-0.996 0.996z"></path>
<path fill="#666" style="fill: var(--color2, #666)" d="M17.923 6.78c1.875-1.695 2.876-4.226 2.919-4.283 0.197-0.478-0.006-1.029-0.465-1.266s-1.026-0.081-1.3 0.358c-0.394 0.613-0.91 0.85-1.517 0.861-0.628 0.001-1.333-0.311-1.838-0.951-0.824-1.031-2.070-1.497-3.271-1.498-1.202 0.001-2.447 0.467-3.271 1.498-0.225 0.284-0.279 0.663-0.14 0.998 0.018 0.040 0.549 1.335 1.5 2.686 0.394 0.557 0.882 1.109 1.435 1.603-0.58 0.249-1.152 0.54-1.71 0.901-2.236 1.457-4.297 3.736-5.836 6.339-1.532 2.605-2.547 5.535-2.551 8.349-0.011 2.556 0.893 5.066 3.053 6.838 2.154 1.774 5.415 2.785 10.011 2.786 4.581-0.001 7.836-1.022 9.984-2.809 2.154-1.786 3.054-4.307 3.044-6.876-0.012-3.74-1.767-7.692-4.209-10.791-1.687-2.11-3.701-3.841-5.837-4.742zM11.623 3.188c-0.175-0.298-0.313-0.56-0.429-0.791 0.357-0.235 0.776-0.405 1.257-0.404 0.696-0.001 1.35 0.28 1.709 0.743 0.834 1.052 2.030 1.642 3.251 1.688-0.359 0.456-0.754 0.883-1.158 1.176-0.463 0.337-0.899 0.502-1.312 0.501-0.439 0.001-0.908-0.188-1.404-0.571-0.738-0.564-1.438-1.527-1.915-2.343zM23.649 27.661c-1.648 1.38-4.409 2.347-8.708 2.347-4.318 0.001-7.091-0.96-8.742-2.33-1.646-1.371-2.318-3.175-2.329-5.302-0.012-3.098 1.576-6.773 3.82-9.589 1.118-1.409 2.392-2.607 3.661-3.431 1.27-0.828 2.525-1.267 3.591-1.263 2.172-0.037 5.047 1.842 7.258 4.667 2.226 2.8 3.79 6.458 3.778 9.555-0.012 2.143-0.686 3.965-2.329 5.346z"></path>
</symbol>
<symbol id="icon-graph" viewBox="0 0 32 32">
<path fill="#95cc29" style="fill: var(--color1, #95cc29)" d="M8 16h4v4h-4v-4z"></path>
<path fill="#95cc29" style="fill: var(--color1, #95cc29)" d="M14 12h4v8h-4v-8z"></path>
<path fill="#95cc29" style="fill: var(--color1, #95cc29)" d="M20 8h4v12h-4v-12z"></path>
<path fill="#666" style="fill: var(--color2, #666)" d="M28.999 0h-26c-1.657 0.001-2.999 1.343-2.999 3 0 1.305 0 2.403 2 2.816v17.184c0 0.263 0.106 0.521 0.292 0.707s0.444 0.293 0.707 0.293h11.001v2.184c-2 0.413-1.999 1.511-2 2.816 0.002 1.658 1.343 2.998 3 3 1.656-0.002 2.999-1.342 3-3-0.001-1.305 0-2.402-2-2.816v-2.184h12.999c0.263 0 0.521-0.107 0.708-0.293s0.293-0.444 0.293-0.707v-17.184c2-0.413 1.999-1.511 2-2.816-0.001-1.657-1.344-2.999-3.001-3zM14.999 30c-0.549-0.001-0.999-0.451-1-1 0.001-0.549 0.451-0.999 1-1 0.549 0.001 0.999 0.451 1 1-0.001 0.549-0.451 0.999-1 1zM28 22h-24v-16h24v16zM28.999 4h-26c-0.552-0.001-0.999-0.448-1-1 0.001-0.552 0.448-0.999 1-1h26c0.552 0.001 0.999 0.448 1 1-0.001 0.552-0.448 0.999-1 1z"></path>
</symbol>
<symbol id="icon-list" viewBox="0 0 32 32">
<path fill="#95cc29" style="fill: var(--color1, #95cc29)" d="M29.743 6.382l1.671-1.635c0.779-0.779 0.779-2.042 0-2.822l-1.411-1.411c-0.779-0.779-2.042-0.779-2.822 0l-1.635 1.67 4.197 4.198z"></path>
<path fill="#95cc29" style="fill: var(--color1, #95cc29)" d="M24.15 3.611l-8.186 8.362v4.062h3.99l8.362-8.222z"></path>
<path fill="#666" style="fill: var(--color2, #666)" d="M25.942 14.040h-1.996v11.973h-15.965v0.927c0 1.652-1.341 2.99-2.993 2.993-1.652-0.003-2.993-1.341-2.993-2.993v-23.947c0-0.551 0.446-0.927 0.997-0.927h19.956l0.4 0.048 0.803-1.809c-0.369-0.163-0.779-0.234-1.204-0.234h-19.956c-1.653 0-2.991 1.269-2.991 2.923v23.947c0 2.756 2.232 5.060 4.988 5.060h19.956c2.755 0 4.99-2.304 4.99-5.060v-0.927h-3.991v-11.973zM27.751 28.009c-0.413 0.998-1.508 1.996-2.809 1.996h-15.987c0.44-0.998 0.769-0.998 0.92-1.996h17.875z"></path>
</symbol>
<symbol id="icon-lock" viewBox="0 0 32 32">
<path fill="#95cc29" style="fill: var(--color1, #95cc29)" d="M26.999 16c-2.761 0-5 2.239-5 5 0 0.643 0.133 1.254 0.354 1.818l-6.353 6.354v2.828h2.827l6.353-6.353c0.565 0.221 1.175 0.353 1.819 0.353 2.761 0 5-2.239 5-5s-2.239-5-5-5zM26.999 20c-0.552 0-1-0.448-1-1s0.448-1 1-1 1 0.448 1 1-0.449 1-1 1z"></path>
<path fill="#666" style="fill: var(--color2, #666)" d="M13 0c-6.076 0.001-11 4.924-11 11v3.184c-2 0.413-2 1.511-2 2.816v12c0 1.657 1.341 2.999 2.999 3h11.001v-2h-11.001c-0.552-0.001-0.999-0.448-0.999-1v-12c0-0.552 0.447-0.999 0.999-1h19.957l0.305 0.026 0.007-0.080c0.163-0.046 0.318-0.118 0.439-0.239 0.186-0.186 0.293-0.444 0.293-0.707v-4c0-6.076-4.925-10.999-11-11zM22 14h-18v-3c0-2.489 1.005-4.732 2.635-6.364 1.632-1.63 3.875-2.636 6.364-2.636s4.733 1.006 6.365 2.636c1.63 1.632 2.636 3.875 2.636 6.364v3z"></path>
<path fill="#666" style="fill: var(--color2, #666)" d="M12.999 18c-1.656 0.002-2.998 1.342-2.999 3 0.001 1.305 0 2.402 2 2.816v3.184c0 0.552 0.448 1 1 1s1-0.448 1-1v-3.184c2-0.414 1.998-1.511 1.999-2.816-0.001-1.658-1.344-2.998-3-3zM12.999 22c-0.549-0.001-0.999-0.451-1-1 0.001-0.549 0.451-0.999 1-1 0.549 0.001 0.999 0.451 1 1-0.001 0.549-0.452 0.999-1 1z"></path>
</symbol>
</defs>
</svg>
