<!-- Generated by IcoMoon.io -->
<svg version="1.1" xmlns="http://www.w3.org/2000/svg" width="32" height="32" viewBox="0 0 32 32">
<title>battery</title>
<path fill="#95cc29" d="M14 8l-6.001 10h6.001v6l5.999-10h-5.999z"></path>
<path fill="#666" d="M2.999 26h24c1.657-0.001 3.001-1.343 3.001-3v-3h0.999c0.263 0 0.522-0.107 0.708-0.293s0.293-0.444 0.293-0.707v-6c0-0.263-0.107-0.521-0.294-0.707-0.186-0.186-0.444-0.293-0.707-0.293h-0.999v-3c0-1.657-1.344-2.999-3.001-3h-24c-1.658 0.001-2.999 1.343-2.999 3v14c0 1.657 1.341 2.999 2.999 3zM2 9c0-0.552 0.447-0.999 0.999-1h24c0.551 0.001 1.001 0.448 1.001 1v14c0 0.552-0.45 0.999-1.001 1h-24c-0.552-0.001-0.999-0.448-0.999-1v-14z"></path>
</svg>
