<!-- Generated by IcoMoon.io -->
<svg version="1.1" xmlns="http://www.w3.org/2000/svg" width="32" height="32" viewBox="0 0 32 32">
<title>check</title>
<path fill="#95cc29" d="M24.999 18c-3.866 0-7 3.134-7 7s3.134 7 7 7 7-3.134 7-7-3.135-7-7-7zM29.706 23.707l-5 5c-0.187 0.186-0.444 0.293-0.707 0.293s-0.521-0.107-0.707-0.293l-3-3c-0.391-0.391-0.391-1.024 0-1.414s1.024-0.391 1.414 0l2.293 2.293 4.293-4.293c0.391-0.391 1.024-0.391 1.414 0s0.39 1.024 0 1.414z"></path>
<path fill="#666" d="M2.999 32h15.001v-2h-15.001c-0.552-0.001-0.999-0.448-0.999-1v-22c0-0.552 0.447-0.999 0.999-1h1.184c-0.112 0.314-0.183 0.647-0.183 1v3h18v-3c0-0.353-0.074-0.686-0.185-1h1.184c0.551 0.001 1.001 0.448 1.001 1v9h2v-9c0-1.657-1.344-2.999-3.001-3h-5.101c-0.464-2.282-2.48-4-4.899-4s-4.436 1.718-4.899 4h-5.101c-1.658 0.001-2.999 1.343-2.999 3v22c0 1.657 1.341 2.999 2.999 3zM6 7c0-0.552 0.447-0.999 0.999-1h3.001v-1c0-1.657 1.343-2.997 3-3 1.656 0.003 3 1.344 3 3v1h2.999c0.551 0.001 1.001 0.448 1.001 1v1h-14v-1z"></path>
<path fill="#666" d="M13.999 5c0 0.552-0.448 1-1 1s-1-0.448-1-1c0-0.552 0.448-1 1-1s1 0.448 1 1z"></path>
</svg>
