<!-- Generated by IcoMoon.io -->
<svg version="1.1" xmlns="http://www.w3.org/2000/svg" width="32" height="32" viewBox="0 0 32 32">
<title>cloud</title>
<path fill="#95cc29" d="M14 32l-6-8h4v-8h4v8h4z"></path>
<path fill="#666" d="M24 8c-0.108 0-0.184 0.022-0.286 0.028-0.923-4.557-4.878-8.026-9.714-8.028-5.517 0.002-9.998 4.483-10 10 0 0.797 0.134 1.546 0.315 2.271-2.485 0.727-4.313 3.002-4.315 5.729 0.002 3.238 2.577 5.861 5.786 5.978l0.037 0.010 0.117 0.012c0.116 0.004 0.39 0.006 2.056 0.010l0.003-2c-0.905-0.001-1.408-0.005-1.682-0.006l-0.259-0.004h-0.058v0.005c0 0-0.004-0.005-0.014-0.005-2.203-0.004-3.989-1.797-3.993-4-0.002-2.079 1.613-3.78 3.657-3.96 0.074-0.006 0.139-0.046 0.209-0.068 0.048 0.007 0.091 0.028 0.14 0.028 1.104 0 2.099 0.447 2.827 1.173 0.391 0.391 1.024 0.391 1.414 0 0.391-0.391 0.391-1.024 0-1.414-1.011-1.013-2.398-1.645-3.922-1.727-0.185-0.661-0.318-1.333-0.318-2.032 0-2.208 0.895-4.202 2.346-5.654s3.446-2.346 5.654-2.346c3.835-0.002 6.987 2.741 7.75 6.362-1.297 0.384-2.474 1.053-3.404 1.983-0.391 0.391-0.27 1.024 0.12 1.414s1.534 0.391 1.534 0.001v-0.049c0-0.872 1.774-1.711 3.042-1.711 0.008 0 0.016 0 0.024 0 0.352 0 0.657-0.050 0.934-0.049 1.656 0 3.15 0.696 4.24 1.784 1.089 1.090 1.76 2.597 1.76 4.253 0.005 3.007-2.249 5.562-5.128 5.983-0.139 0.013-0.767 0.027-1.458 0.026-1.47 0-3.395-0.028-3.399-0.028l-0.030 2.001c0.003 0 1.936 0.030 3.429 0.030 0.761-0.002 1.352-0.004 1.687-0.034l0.043-0.005c3.88-0.567 6.851-3.939 6.857-7.96-0.003-4.415-3.587-7.999-8.001-8.001z"></path>
</svg>
