<!-- Generated by IcoMoon.io -->
<svg version="1.1" xmlns="http://www.w3.org/2000/svg" width="32" height="32" viewBox="0 0 32 32">
<title>graph</title>
<path fill="#95cc29" d="M8 16h4v4h-4v-4z"></path>
<path fill="#95cc29" d="M14 12h4v8h-4v-8z"></path>
<path fill="#95cc29" d="M20 8h4v12h-4v-12z"></path>
<path fill="#666" d="M28.999 0h-26c-1.657 0.001-2.999 1.343-2.999 3 0 1.305 0 2.403 2 2.816v17.184c0 0.263 0.106 0.521 0.292 0.707s0.444 0.293 0.707 0.293h11.001v2.184c-2 0.413-1.999 1.511-2 2.816 0.002 1.658 1.343 2.998 3 3 1.656-0.002 2.999-1.342 3-3-0.001-1.305 0-2.402-2-2.816v-2.184h12.999c0.263 0 0.521-0.107 0.708-0.293s0.293-0.444 0.293-0.707v-17.184c2-0.413 1.999-1.511 2-2.816-0.001-1.657-1.344-2.999-3.001-3zM14.999 30c-0.549-0.001-0.999-0.451-1-1 0.001-0.549 0.451-0.999 1-1 0.549 0.001 0.999 0.451 1 1-0.001 0.549-0.451 0.999-1 1zM28 22h-24v-16h24v16zM28.999 4h-26c-0.552-0.001-0.999-0.448-1-1 0.001-0.552 0.448-0.999 1-1h26c0.552 0.001 0.999 0.448 1 1-0.001 0.552-0.448 0.999-1 1z"></path>
</svg>
