<!-- Generated by IcoMoon.io -->
<svg version="1.1" xmlns="http://www.w3.org/2000/svg" width="32" height="32" viewBox="0 0 32 32">
<title>lamp</title>
<path fill="#95cc29" d="M31.727 16.273c0 0-7.092-1.393-10.607 2.121-2.606 2.606-2.513 7.172-2.291 9.363l-2.536 2.536c-0.391 0.391-0.391 1.024 0 1.414s1.024 0.391 1.414 0l2.536-2.536c2.19 0.222 6.757 0.314 9.363-2.292 3.515-3.515 2.121-10.606 2.121-10.606zM22.535 19.704c1.886-1.886 5.434-1.958 7.402-1.798l-9.156 9.094c-0.177-2-0.028-5.515 1.754-7.296z"></path>
<path fill="#666" d="M4.374 21.248c1.014 0.84 1.626 1.964 1.626 3.17v3.582c0 1.105 0.895 2 2 2h0.587c0.695 1 1.943 1.998 3.413 2 1.47-0.002 2.718-1 3.413-2h0.587v-0.601c0-0.023 0.027-0.042 0.035-0.065l-0.035-0.012v-1.322h-8v-2h8v-2h-8v0.418c0-1.905-0.968-3.574-2.354-4.713-2.227-1.838-3.646-4.604-3.646-7.705 0-2.759 1.12-5.253 2.933-7.068 1.814-1.812 4.308-2.932 7.067-2.932 0.706 0 1.431 0.073 2.169 0.229 3.83 0.799 6.934 3.99 7.65 7.841 0.122 0.656 0.181 1.3 0.181 1.93 0 0.974-0.14 1.914-0.401 2.802l1.919 0.563c0.314-1.068 0.482-2.198 0.482-3.365 0-0.754-0.070-1.522-0.216-2.299-0.881-4.664-4.555-8.444-9.203-9.43-0.872-0.183-1.736-0.271-2.581-0.271-6.62 0.002-11.998 5.38-12 12-0.001 3.721 1.709 7.052 4.374 9.248z"></path>
<path fill="#666" d="M4 12c0 0.552 0.448 1 1 1s1-0.448 1-1c0-1.656 0.671-3.15 1.76-4.24s2.584-1.76 4.24-1.76c0.552 0 1-0.448 1-1s-0.448-1-1-1c-4.414 0.002-7.998 3.586-8 8z"></path>
</svg>
