<!-- Generated by IcoMoon.io -->
<svg version="1.1" xmlns="http://www.w3.org/2000/svg" width="32" height="32" viewBox="0 0 32 32">
<title>letter</title>
<path fill="#95cc29" d="M25.999 16l-6 8h4.001v8h4v-8h3.999z"></path>
<path fill="#666" d="M31.12 0.879c-0.195-0.195-0.426-0.353-0.67-0.489-0.263-0.146-0.543-0.266-0.847-0.329-0.196-0.040-0.398-0.061-0.604-0.061h-26c-0.207 0-0.409 0.021-0.605 0.061-0.324 0.066-0.623 0.195-0.9 0.357-0.224 0.131-0.436 0.279-0.617 0.46h0.001c-0.543 0.544-0.878 1.294-0.878 2.122v20c0 0.828 0.335 1.578 0.878 2.121v0c0.181 0.182 0.393 0.33 0.617 0.46 0.277 0.162 0.575 0.291 0.9 0.357 0.195 0.041 0.397 0.062 0.604 0.062h15.001v-2h-14.587l9.586-9.586 0.879 0.879c0.583 0.584 1.357 0.88 2.121 0.879 0.764 0.001 1.538-0.295 2.121-0.879l0.879-0.879 3.15 3.15 1.414-1.414-3.15-3.15 9.587-9.586v14.586h2v-15c0-0.828-0.337-1.578-0.88-2.121v0zM2 22.586v-19.172l9.586 9.586-9.586 9.586zM16.706 13.879c-0.198 0.197-0.448 0.292-0.707 0.293-0.259-0.001-0.509-0.096-0.707-0.293l-11.879-11.879h25.172l-11.879 11.879z"></path>
</svg>
