<!-- Generated by IcoMoon.io -->
<svg version="1.1" xmlns="http://www.w3.org/2000/svg" width="32" height="32" viewBox="0 0 32 32">
<title>list</title>
<path fill="#95cc29" d="M29.743 6.382l1.671-1.635c0.779-0.779 0.779-2.042 0-2.822l-1.411-1.411c-0.779-0.779-2.042-0.779-2.822 0l-1.635 1.67 4.197 4.198z"></path>
<path fill="#95cc29" d="M24.15 3.611l-8.186 8.362v4.062h3.99l8.362-8.222z"></path>
<path fill="#666" d="M25.942 14.040h-1.996v11.973h-15.965v0.927c0 1.652-1.341 2.99-2.993 2.993-1.652-0.003-2.993-1.341-2.993-2.993v-23.947c0-0.551 0.446-0.927 0.997-0.927h19.956l0.4 0.048 0.803-1.809c-0.369-0.163-0.779-0.234-1.204-0.234h-19.956c-1.653 0-2.991 1.269-2.991 2.923v23.947c0 2.756 2.232 5.060 4.988 5.060h19.956c2.755 0 4.99-2.304 4.99-5.060v-0.927h-3.991v-11.973zM27.751 28.009c-0.413 0.998-1.508 1.996-2.809 1.996h-15.987c0.44-0.998 0.769-0.998 0.92-1.996h17.875z"></path>
</svg>
