<!-- Generated by IcoMoon.io -->
<svg version="1.1" xmlns="http://www.w3.org/2000/svg" width="32" height="32" viewBox="0 0 32 32">
<title>lock</title>
<path fill="#95cc29" d="M26.999 16c-2.761 0-5 2.239-5 5 0 0.643 0.133 1.254 0.354 1.818l-6.353 6.354v2.828h2.827l6.353-6.353c0.565 0.221 1.175 0.353 1.819 0.353 2.761 0 5-2.239 5-5s-2.239-5-5-5zM26.999 20c-0.552 0-1-0.448-1-1s0.448-1 1-1 1 0.448 1 1-0.449 1-1 1z"></path>
<path fill="#666" d="M13 0c-6.076 0.001-11 4.924-11 11v3.184c-2 0.413-2 1.511-2 2.816v12c0 1.657 1.341 2.999 2.999 3h11.001v-2h-11.001c-0.552-0.001-0.999-0.448-0.999-1v-12c0-0.552 0.447-0.999 0.999-1h19.957l0.305 0.026 0.007-0.080c0.163-0.046 0.318-0.118 0.439-0.239 0.186-0.186 0.293-0.444 0.293-0.707v-4c0-6.076-4.925-10.999-11-11zM22 14h-18v-3c0-2.489 1.005-4.732 2.635-6.364 1.632-1.63 3.875-2.636 6.364-2.636s4.733 1.006 6.365 2.636c1.63 1.632 2.636 3.875 2.636 6.364v3z"></path>
<path fill="#666" d="M12.999 18c-1.656 0.002-2.998 1.342-2.999 3 0.001 1.305 0 2.402 2 2.816v3.184c0 0.552 0.448 1 1 1s1-0.448 1-1v-3.184c2-0.414 1.998-1.511 1.999-2.816-0.001-1.658-1.344-2.998-3-3zM12.999 22c-0.549-0.001-0.999-0.451-1-1 0.001-0.549 0.451-0.999 1-1 0.549 0.001 0.999 0.451 1 1-0.001 0.549-0.452 0.999-1 1z"></path>
</svg>
