<!-- Generated by IcoMoon.io -->
<svg version="1.1" xmlns="http://www.w3.org/2000/svg" width="32" height="32" viewBox="0 0 32 32">
<title>money</title>
<path fill="#95cc29" d="M10.956 21.543c-0.012 1.135 0.563 2.102 1.342 2.656 0.778 0.566 1.718 0.808 2.647 0.811 0.928-0.003 1.868-0.245 2.646-0.811 0.778-0.554 1.353-1.522 1.341-2.657 0.001-0.602-0.123-1.156-0.38-1.624-0.456-0.833-1.237-1.251-1.933-1.482-1.058-0.345-2.139-0.432-2.81-0.693-0.337-0.125-0.537-0.263-0.649-0.404-0.11-0.143-0.204-0.326-0.21-0.781 0.012-0.513 0.185-0.781 0.529-1.051 0.344-0.258 0.899-0.427 1.467-0.424 0.567-0.003 1.123 0.166 1.466 0.424 0.343 0.27 0.515 0.537 0.528 1.051 0 0.55 0.446 0.996 0.996 0.996s0.996-0.446 0.996-0.996c0.013-1.135-0.563-2.103-1.341-2.657-0.778-0.566-1.717-0.808-2.646-0.811-0.928 0.003-1.869 0.245-2.647 0.811-0.779 0.554-1.354 1.522-1.342 2.657-0.001 0.602 0.123 1.156 0.38 1.624 0.456 0.833 1.237 1.251 1.933 1.483 1.058 0.345 2.139 0.432 2.81 0.693 0.337 0.125 0.537 0.263 0.649 0.404 0.11 0.143 0.204 0.326 0.21 0.781-0.013 0.514-0.185 0.781-0.528 1.051-0.344 0.258-0.899 0.427-1.466 0.424-0.568 0.003-1.123-0.166-1.467-0.424-0.344-0.27-0.516-0.538-0.528-1.050 0-0.55-0.446-0.996-0.996-0.996-0.552-0.001-0.997 0.445-0.997 0.995v0z"></path>
<path fill="#95cc29" d="M13.946 13.074v1.013c0 0.55 0.446 0.996 0.996 0.996s0.996-0.446 0.996-0.996v-1.013c0-0.55-0.446-0.996-0.996-0.996s-0.996 0.446-0.996 0.996z"></path>
<path fill="#95cc29" d="M13.946 24.031v0.996c0 0.55 0.446 0.996 0.996 0.996s0.996-0.446 0.996-0.996v-1.013c0-0.55-0.446-0.996-0.996-0.996s-0.996 0.446-0.996 0.996z"></path>
<path fill="#666" d="M17.923 6.78c1.875-1.695 2.876-4.226 2.919-4.283 0.197-0.478-0.006-1.029-0.465-1.266s-1.026-0.081-1.3 0.358c-0.394 0.613-0.91 0.85-1.517 0.861-0.628 0.001-1.333-0.311-1.838-0.951-0.824-1.031-2.070-1.497-3.271-1.498-1.202 0.001-2.447 0.467-3.271 1.498-0.225 0.284-0.279 0.663-0.14 0.998 0.018 0.040 0.549 1.335 1.5 2.686 0.394 0.557 0.882 1.109 1.435 1.603-0.58 0.249-1.152 0.54-1.71 0.901-2.236 1.457-4.297 3.736-5.836 6.339-1.532 2.605-2.547 5.535-2.551 8.349-0.011 2.556 0.893 5.066 3.053 6.838 2.154 1.774 5.415 2.785 10.011 2.786 4.581-0.001 7.836-1.022 9.984-2.809 2.154-1.786 3.054-4.307 3.044-6.876-0.012-3.74-1.767-7.692-4.209-10.791-1.687-2.11-3.701-3.841-5.837-4.742zM11.623 3.188c-0.175-0.298-0.313-0.56-0.429-0.791 0.357-0.235 0.776-0.405 1.257-0.404 0.696-0.001 1.35 0.28 1.709 0.743 0.834 1.052 2.030 1.642 3.251 1.688-0.359 0.456-0.754 0.883-1.158 1.176-0.463 0.337-0.899 0.502-1.312 0.501-0.439 0.001-0.908-0.188-1.404-0.571-0.738-0.564-1.438-1.527-1.915-2.343zM23.649 27.661c-1.648 1.38-4.409 2.347-8.708 2.347-4.318 0.001-7.091-0.96-8.742-2.33-1.646-1.371-2.318-3.175-2.329-5.302-0.012-3.098 1.576-6.773 3.82-9.589 1.118-1.409 2.392-2.607 3.661-3.431 1.27-0.828 2.525-1.267 3.591-1.263 2.172-0.037 5.047 1.842 7.258 4.667 2.226 2.8 3.79 6.458 3.778 9.555-0.012 2.143-0.686 3.965-2.329 5.346z"></path>
</svg>
